<svg width="18" height="19" viewBox="0 0 18 19" fill="none" xmlns="http://www.w3.org/2000/svg">
<path fill-rule="evenodd" clip-rule="evenodd" d="M15.4541 0H3.36941C2.788 0.000622832 2.23058 0.231864 1.81946 0.642985C1.40833 1.05411 1.17709 1.61153 1.17647 2.19294V3.52941H0.588235C0.432226 3.52941 0.282606 3.59139 0.17229 3.7017C0.0619746 3.81202 0 3.96164 0 4.11765C0 4.27366 0.0619746 4.42328 0.17229 4.53359C0.282606 4.64391 0.432226 4.70588 0.588235 4.70588H1.17647V7.05882H0.588235C0.432226 7.05882 0.282606 7.1208 0.17229 7.23111C0.0619746 7.34143 0 7.49105 0 7.64706C0 7.80307 0.0619746 7.95269 0.17229 8.063C0.282606 8.17332 0.432226 8.23529 0.588235 8.23529H1.17647V10.5882H0.588235C0.432226 10.5882 0.282606 10.6502 0.17229 10.7605C0.0619746 10.8708 0 11.0205 0 11.1765C0 11.3325 0.0619746 11.4821 0.17229 11.5924C0.282606 11.7027 0.432226 11.7647 0.588235 11.7647H1.17647V14.1176H0.588235C0.432226 14.1176 0.282606 14.1796 0.17229 14.2899C0.0619746 14.4003 0 14.5499 0 14.7059C0 14.8619 0.0619746 15.0115 0.17229 15.1218C0.282606 15.2321 0.432226 15.2941 0.588235 15.2941H1.17647V16.6306C1.17709 17.212 1.40833 17.7694 1.81946 18.1805C2.23058 18.5917 2.788 18.8229 3.36941 18.8235H15.4541C16.0355 18.8229 16.593 18.5917 17.0041 18.1805C17.4152 17.7694 17.6464 17.212 17.6471 16.6306V2.19294C17.6464 1.61153 17.4152 1.05411 17.0041 0.642985C16.593 0.231864 16.0355 0.000622832 15.4541 0ZM16.4706 16.6306C16.4703 16.9001 16.3631 17.1584 16.1725 17.349C15.982 17.5396 15.7236 17.6467 15.4541 17.6471H3.36941C3.09992 17.6467 2.84156 17.5396 2.651 17.349C2.46044 17.1584 2.35325 16.9001 2.35294 16.6306V15.2941H2.94118C3.09719 15.2941 3.24681 15.2321 3.35712 15.1218C3.46744 15.0115 3.52941 14.8619 3.52941 14.7059C3.52941 14.5499 3.46744 14.4003 3.35712 14.2899C3.24681 14.1796 3.09719 14.1176 2.94118 14.1176H2.35294V11.7647H2.94118C3.09719 11.7647 3.24681 11.7027 3.35712 11.5924C3.46744 11.4821 3.52941 11.3325 3.52941 11.1765C3.52941 11.0205 3.46744 10.8708 3.35712 10.7605C3.24681 10.6502 3.09719 10.5882 2.94118 10.5882H2.35294V8.23529H2.94118C3.09719 8.23529 3.24681 8.17332 3.35712 8.063C3.46744 7.95269 3.52941 7.80307 3.52941 7.64706C3.52941 7.49105 3.46744 7.34143 3.35712 7.23111C3.24681 7.1208 3.09719 7.05882 2.94118 7.05882H2.35294V4.70588H2.94118C3.09719 4.70588 3.24681 4.64391 3.35712 4.53359C3.46744 4.42328 3.52941 4.27366 3.52941 4.11765C3.52941 3.96164 3.46744 3.81202 3.35712 3.7017C3.24681 3.59139 3.09719 3.52941 2.94118 3.52941H2.35294V2.19294C2.35325 1.92345 2.46044 1.66509 2.651 1.47453C2.84156 1.28397 3.09992 1.17678 3.36941 1.17647H15.4541C15.7236 1.17678 15.982 1.28397 16.1725 1.47453C16.3631 1.66509 16.4703 1.92345 16.4706 2.19294V16.6306ZM9.99977 9.41176C10.5815 9.41176 11.1501 9.23926 11.6338 8.91608C12.1175 8.5929 12.4945 8.13355 12.7171 7.59612C12.9397 7.05869 12.9979 6.46732 12.8844 5.89679C12.7709 5.32625 12.4908 4.80219 12.0795 4.39086C11.6682 3.97952 11.1441 3.6994 10.5736 3.58592C10.003 3.47243 9.41166 3.53068 8.87423 3.75329C8.3368 3.9759 7.87745 4.35288 7.55427 4.83655C7.23109 5.32023 7.05859 5.88887 7.05859 6.47058C7.05953 7.25034 7.3697 7.9979 7.92108 8.54928C8.47245 9.10065 9.22001 9.41082 9.99977 9.41176ZM9.99977 4.70588C10.3488 4.70588 10.69 4.80937 10.9802 5.00328C11.2704 5.19719 11.4966 5.4728 11.6301 5.79526C11.7637 6.11772 11.7987 6.47254 11.7306 6.81486C11.6625 7.15718 11.4944 7.47162 11.2476 7.71842C11.0008 7.96522 10.6864 8.13329 10.344 8.20138C10.0017 8.26947 9.6469 8.23452 9.32445 8.10096C9.00199 7.96739 8.72638 7.7412 8.53247 7.451C8.33856 7.1608 8.23506 6.81961 8.23506 6.47058C8.23506 6.00255 8.42099 5.55369 8.75193 5.22275C9.08288 4.8918 9.53174 4.70588 9.99977 4.70588ZM6.67381 11.3799C7.55603 10.4977 8.75218 10.0014 9.99983 10C11.2475 10.0014 12.4436 10.4977 13.3258 11.3799C14.2081 12.2621 14.7043 13.4583 14.7057 14.7059C14.7057 14.8619 14.6437 15.0115 14.5334 15.1218C14.4231 15.2322 14.2735 15.2941 14.1175 15.2941H5.88218C5.72617 15.2941 5.57655 15.2322 5.46624 15.1218C5.35592 15.0115 5.29395 14.8619 5.29395 14.7059C5.29535 13.4583 5.79159 12.2621 6.67381 11.3799ZM7.72036 12.0081C7.08315 12.5472 6.65759 13.2946 6.51924 14.1177H13.4804C13.3421 13.2946 12.9165 12.5472 12.2793 12.0081C11.6421 11.4691 10.8345 11.1733 9.99983 11.1733C9.1652 11.1733 8.35757 11.4691 7.72036 12.0081Z" fill="black"/>
</svg>
