<svg width="21" height="21" viewBox="0 0 21 21" fill="none" xmlns="http://www.w3.org/2000/svg">
<path d="M0.253065 4.8608L9.87807 0.0482969C10.0071 -0.016099 10.1593 -0.016099 10.288 0.0482969L19.913 4.8608C20.0684 4.93848 20.1665 5.09707 20.1665 5.27078V14.8958C20.1665 15.0695 20.0684 15.2281 19.9133 15.3058L10.2883 20.1183C10.2236 20.1506 10.1535 20.1666 10.0832 20.1666C10.0128 20.1666 9.94269 20.1506 9.87807 20.1183L0.253065 15.3058C0.0979195 15.2281 -0.000164032 15.0695 -0.000164032 14.8958V5.27078C-0.000164032 5.09707 0.0979195 4.93848 0.253065 4.8608ZM10.0832 0.970693L1.483 5.27078L3.32275 6.19065L11.9227 1.89057L10.0832 0.970693ZM6.98942 8.02398L15.5896 3.7239L12.9478 2.40298L4.34759 6.70307L6.98942 8.02398ZM6.64567 8.87694L3.89567 7.50194V10.9113L4.77521 10.2831C4.8749 10.2118 4.99957 10.1837 5.12034 10.2045C5.24111 10.2258 5.34859 10.2943 5.41848 10.3952L6.64567 12.1682V8.87694ZM16.6144 4.23632L8.01448 8.5364L10.0832 9.57086L18.6833 5.27078L16.6144 4.23632ZM19.2498 6.01236L10.5415 10.3665V18.9665L19.2498 14.6123V6.01236ZM9.62484 18.9667V10.3665L7.56234 9.33528V13.6354C7.56234 13.8359 7.43217 14.013 7.24082 14.0728C7.19544 14.087 7.14961 14.0937 7.104 14.0937C6.95642 14.0937 6.81434 14.0222 6.72702 13.8964L4.92921 11.2997L3.7034 12.1751C3.56361 12.2748 3.37981 12.2883 3.22742 12.2095C3.07502 12.1311 2.979 11.9737 2.979 11.802V7.04361L0.916502 6.01236V14.6123L9.62484 18.9667Z" fill="black"/>
</svg>
