<svg width="15" height="15" viewBox="0 0 15 15" fill="none" xmlns="http://www.w3.org/2000/svg">
<path fill-rule="evenodd" clip-rule="evenodd" d="M7.5012 0C9.50623 0 11.3905 0.77954 12.8058 2.19555C15.7314 5.1211 15.7314 9.88069 12.8058 12.8062C11.3717 14.2411 9.44063 15.0004 7.48445 15.0004C6.41808 15.0004 5.34473 14.775 4.34047 14.3102C4.04456 14.1915 3.7675 14.0799 3.5686 14.0799C3.3397 14.0813 3.03193 14.1874 2.73463 14.2899C2.12467 14.4993 1.36537 14.7603 0.803574 14.2006C0.243868 13.6402 0.502086 12.883 0.710057 12.2737C0.812646 11.9737 0.918027 11.6638 0.918027 11.4293C0.918027 11.2367 0.825208 10.991 0.682839 10.6372C-0.624304 7.81425 -0.0199336 4.41204 2.19725 2.19625C3.61257 0.780238 5.49617 0 7.5012 0ZM7.5019 1.04683C5.77602 1.04683 4.15483 1.7182 2.93702 2.93671C1.02899 4.84334 0.509763 7.77098 1.64383 10.2227C1.80714 10.6267 1.96486 11.0203 1.96486 11.4293C1.96486 11.8376 1.82458 12.2486 1.70106 12.6115C1.59917 12.9102 1.44493 13.3611 1.54403 13.4602C1.64104 13.5607 2.09467 13.4022 2.39406 13.2996C2.75347 13.1768 3.16104 13.0358 3.56511 13.033C3.96989 13.033 4.35163 13.1866 4.75571 13.3492C7.23112 14.4937 10.1588 13.9731 12.0661 12.0665C14.5827 9.5485 14.5827 5.4526 12.0661 2.93601C10.8476 1.7175 9.22708 1.04683 7.5019 1.04683ZM10.2564 7.09242C10.6416 7.09242 10.9543 7.40438 10.9543 7.79031C10.9543 8.17624 10.6416 8.4882 10.2564 8.4882C9.87116 8.4882 9.55571 8.17624 9.55571 7.79031C9.55571 7.40438 9.86487 7.09242 10.2501 7.09242H10.2564ZM7.4587 7.09242C7.84393 7.09242 8.15659 7.40438 8.15659 7.79031C8.15659 8.17624 7.84393 8.4882 7.4587 8.4882C7.07346 8.4882 6.75802 8.17624 6.75802 7.79031C6.75802 7.40438 7.06649 7.09242 7.45242 7.09242H7.4587ZM4.66073 7.09242C5.04596 7.09242 5.35862 7.40438 5.35862 7.79031C5.35862 8.17624 5.04596 8.4882 4.66073 8.4882C4.27549 8.4882 3.96005 8.17624 3.96005 7.79031C3.96005 7.40438 4.26921 7.09242 4.65445 7.09242H4.66073Z" fill="black"/>
</svg>
