<svg width="22" height="22" viewBox="0 0 22 22" fill="none" xmlns="http://www.w3.org/2000/svg">
<g clip-path="url(#clip0_988_1515)">
<path d="M9.06624 6.66007C4.09076 6.66007 4.52502e-05 10.0815 4.52502e-05 14.2873C4.52502e-05 15.9684 0.652139 17.677 1.848 19.0013L0.159287 20.931C-0.00687272 21.1211 -0.0471774 21.3911 0.0579671 21.6215C0.162467 21.8518 0.391576 21.9998 0.644576 21.9998H9.71077C13.3844 21.9998 18.1324 18.8364 18.1324 14.2873C18.1324 10.0815 14.0417 6.66007 9.06624 6.66007ZM5.15617 15.4687C4.44555 15.4687 3.86715 14.8902 3.86715 14.1796C3.86715 13.469 4.44559 12.8906 5.15617 12.8906C5.86674 12.8906 6.44518 13.4691 6.44518 14.1796C6.44523 14.8902 5.86678 15.4687 5.15617 15.4687ZM9.06624 15.4687C8.35562 15.4687 7.77722 14.8902 7.77722 14.1796C7.77722 13.469 8.35566 12.8906 9.06624 12.8906C9.77681 12.8906 10.3553 13.4691 10.3553 14.1796C10.3553 14.8902 9.77685 15.4687 9.06624 15.4687ZM12.9763 15.4687C12.2657 15.4687 11.6873 14.8902 11.6873 14.1796C11.6873 13.469 12.2657 12.8906 12.9763 12.8906C13.6869 12.8906 14.2653 13.4691 14.2653 14.1796C14.2653 14.8902 13.6869 15.4687 12.9763 15.4687Z" fill="#9344FC"/>
<path d="M21.8442 13.1153L20.3267 11.3447C21.4099 10.1225 21.9997 8.63195 21.9997 7.08993C21.9996 3.18068 18.2408 0.000259399 13.6209 0.000259399C9.44329 0.000259399 5.89403 2.60369 5.26733 5.99225C6.43299 5.59617 7.74023 5.37101 9.06637 5.37101C14.7104 5.37101 19.3475 9.31318 19.4153 14.1796H21.3551C21.9057 14.1796 22.2014 13.5313 21.8442 13.1153Z" fill="#9344FC"/>
</g>
<defs>
<clipPath id="clip0_988_1515">
<rect width="22" height="22" fill="white"/>
</clipPath>
</defs>
</svg>
