<svg width="8" height="8" viewBox="0 0 8 8" fill="none" xmlns="http://www.w3.org/2000/svg">
<path d="M5.736 0C7.092 0 8 0.952 8 2.368V5.6364C8 7.048 7.092 8 5.736 8H2.268C0.912 8 0 7.048 0 5.6364V2.368C0 0.952 0.912 0 2.268 0H5.736ZM5.672 2.8C5.536 2.664 5.312 2.664 5.176 2.8L3.524 4.452L2.824 3.752C2.688 3.616 2.464 3.616 2.328 3.752C2.192 3.888 2.192 4.108 2.328 4.248L3.28 5.196C3.348 5.264 3.436 5.296 3.524 5.296C3.616 5.296 3.704 5.264 3.772 5.196L5.672 3.296C5.808 3.16 5.808 2.94 5.672 2.8Z" fill="#1DDB7C"/>
</svg>
