<svg width="16" height="16" viewBox="0 0 16 16" fill="none" xmlns="http://www.w3.org/2000/svg">
<path d="M15.6115 7.05709L14.5202 5.96606C14.2612 5.70707 14.049 5.19527 14.049 4.82823V3.28525C14.049 2.55125 13.4494 1.95164 12.7156 1.95124H11.1719C10.8053 1.95124 10.2929 1.73862 10.0339 1.47983L8.9428 0.388804C8.42439 -0.129601 7.57557 -0.129601 7.05715 0.388804L5.9661 1.48061C5.70687 1.7396 5.19388 1.95164 4.82805 1.95164H3.28503C2.55199 1.95164 1.95158 2.55125 1.95158 3.28525V4.82827C1.95158 5.19386 1.73939 5.70727 1.48035 5.9661L0.389105 7.05713C-0.129702 7.57553 -0.129702 8.42433 0.389105 8.94356L1.48035 10.0346C1.73954 10.2936 1.95158 10.8068 1.95158 11.1724V12.7154C1.95158 13.4487 2.55199 14.049 3.28503 14.049H4.82809C5.1947 14.049 5.7071 14.2612 5.96614 14.5201L7.05719 15.6115C7.57561 16.1295 8.42443 16.1295 8.94284 15.6115L10.0339 14.5201C10.2931 14.2611 10.8053 14.049 11.1719 14.049H12.7156C13.4494 14.049 14.049 13.4487 14.049 12.7154V11.1724C14.049 10.8052 14.2614 10.2934 14.5203 10.0346L15.6115 8.94356C16.1295 8.42433 16.1295 7.57549 15.6115 7.05709ZM6.94156 11.0001L3.99966 8.05792L4.94251 7.11529L6.9418 9.11453L11.0573 5.00007L11.9999 5.9427L6.94156 11.0001Z" fill="#9344FC"/>
</svg>
