<svg width="14" height="14" viewBox="0 0 14 14" fill="none" xmlns="http://www.w3.org/2000/svg">
<path fill-rule="evenodd" clip-rule="evenodd" d="M7.00112 0C8.87248 0 10.6312 0.727571 11.9521 2.04918C14.6826 4.77969 14.6826 9.22198 11.9521 11.9525C10.6136 13.2917 8.81125 14.0004 6.98549 14.0004C5.99021 14.0004 4.98841 13.79 4.0511 13.3562C3.77493 13.2454 3.51634 13.1412 3.3307 13.1412C3.11705 13.1425 2.8298 13.2415 2.55232 13.3373C1.98303 13.5327 1.27435 13.7763 0.750002 13.2539C0.22761 12.7309 0.468614 12.0241 0.66272 11.4555C0.75847 11.1754 0.856825 10.8862 0.856825 10.6673C0.856825 10.4876 0.770194 10.2583 0.637316 9.92805C-0.582684 7.2933 -0.0186047 4.11791 2.05077 2.04984C3.37173 0.728222 5.12976 0 7.00112 0ZM7.00177 0.977042C5.39095 0.977042 3.87784 1.60365 2.74121 2.74093C0.960392 4.52045 0.475779 7.25291 1.53424 9.54115C1.68666 9.91828 1.83387 10.2857 1.83387 10.6673C1.83387 11.0484 1.70294 11.432 1.58765 11.7708C1.49255 12.0495 1.3486 12.4703 1.4411 12.5628C1.53164 12.6566 1.95502 12.5087 2.23446 12.413C2.56991 12.2984 2.9503 12.1668 3.32744 12.1642C3.70523 12.1642 4.06152 12.3075 4.43866 12.4592C6.74904 13.5275 9.4815 13.0416 11.2617 11.262C13.6105 8.91193 13.6105 5.08909 11.2617 2.74028C10.1244 1.603 8.61194 0.977042 7.00177 0.977042ZM9.57263 6.61959C9.93218 6.61959 10.224 6.91075 10.224 7.27095C10.224 7.63116 9.93218 7.92232 9.57263 7.92232C9.21308 7.92232 8.91866 7.63116 8.91866 7.27095C8.91866 6.91075 9.20722 6.61959 9.56677 6.61959H9.57263ZM6.96145 6.61959C7.321 6.61959 7.61281 6.91075 7.61281 7.27095C7.61281 7.63116 7.321 7.92232 6.96145 7.92232C6.6019 7.92232 6.30749 7.63116 6.30749 7.27095C6.30749 6.91075 6.59539 6.61959 6.95559 6.61959H6.96145ZM4.35001 6.61959C4.70956 6.61959 5.00137 6.91075 5.00137 7.27095C5.00137 7.63116 4.70956 7.92232 4.35001 7.92232C3.99046 7.92232 3.69605 7.63116 3.69605 7.27095C3.69605 6.91075 3.9846 6.61959 4.34415 6.61959H4.35001Z" fill="black"/>
</svg>
