<svg width="6" height="6" viewBox="0 0 6 6" fill="none" xmlns="http://www.w3.org/2000/svg">
<path fill-rule="evenodd" clip-rule="evenodd" d="M3.60604 3.00005L5.87443 0.731665C6.042 0.564097 6.042 0.293245 5.87443 0.125676C5.70686 -0.0418921 5.43601 -0.0418921 5.26844 0.125676L3.00005 2.39406L0.731665 0.125676C0.564097 -0.0418921 0.293245 -0.0418921 0.125676 0.125676C-0.0418921 0.293245 -0.0418921 0.564097 0.125676 0.731665L2.39406 3.00005L0.125676 5.26844C-0.0418921 5.43601 -0.0418921 5.70686 0.125676 5.87443C0.209246 5.958 0.318958 6 0.428671 6C0.538383 6 0.648096 5.958 0.731665 5.87443L3.00005 3.60604L5.26844 5.87443C5.35201 5.958 5.46172 6 5.57144 6C5.68115 6 5.79086 5.958 5.87443 5.87443C6.042 5.70686 6.042 5.43601 5.87443 5.26844L3.60604 3.00005Z" fill="#FF1414"/>
</svg>
