<svg width="15" height="16" viewBox="0 0 15 16" fill="none" xmlns="http://www.w3.org/2000/svg">
<path d="M2.28452 16C1.92262 16 1.60595 15.8667 1.33452 15.6C1.06309 15.3333 0.927381 15.0222 0.927381 14.6667V2H0V0.666667H4.25238V0H10.2238V0.666667H14.4762V2H13.5488V14.6667C13.5488 15.0222 13.4131 15.3333 13.1417 15.6C12.8702 15.8667 12.5536 16 12.1917 16H2.28452ZM12.1917 2H2.28452V14.6667H12.1917V2ZM4.68214 12.7556H6.03929V3.88889H4.68214V12.7556ZM8.4369 12.7556H9.79405V3.88889H8.4369V12.7556ZM2.28452 2V14.6667V2Z" fill="#FF1414"/>
</svg>
