<svg width="23" height="22" viewBox="0 0 23 22" fill="none" xmlns="http://www.w3.org/2000/svg">
<path d="M3.59437 12.8236C4.38714 9.09555 7.70119 6.44663 11.4291 6.44663C15.1558 6.44663 18.4698 9.09555 19.2637 12.8236C19.2952 12.9716 19.3854 13.1012 19.5144 13.184C19.6435 13.2669 19.8008 13.2961 19.9519 13.2653C20.103 13.2345 20.2353 13.1462 20.3199 13.0198C20.4045 12.8934 20.4343 12.7393 20.4029 12.5914C19.4997 8.35108 15.7219 5.30829 11.4291 5.30829C7.13625 5.30829 3.3584 8.35108 2.45521 12.5914C2.42376 12.7393 2.45361 12.8934 2.53819 13.0198C2.62278 13.1462 2.75516 13.2345 2.90622 13.2653C3.05729 13.2961 3.21465 13.2669 3.34371 13.184C3.47276 13.1012 3.56293 12.9716 3.59437 12.8236ZM11.4174 8.72331C12.4965 8.72331 13.5313 9.14308 14.2943 9.89026C15.0572 10.6374 15.4859 11.6508 15.4859 12.7075C15.4859 13.7642 15.0572 14.7776 14.2943 15.5248C13.5313 16.2719 12.4965 16.6917 11.4174 16.6917C10.3384 16.6917 9.30358 16.2719 8.5406 15.5248C7.77762 14.7776 7.34898 13.7642 7.34898 12.7075C7.34898 11.6508 7.77762 10.6374 8.5406 9.89026C9.30358 9.14308 10.3384 8.72331 11.4174 8.72331Z" fill="#6A707C"/>
</svg>
