<svg width="18" height="21" viewBox="0 0 18 21" fill="none" xmlns="http://www.w3.org/2000/svg">
<mask id="path-1-outside-1_757_3287" maskUnits="userSpaceOnUse" x="0" y="0" width="18" height="21" fill="black">
<rect fill="white" width="18" height="21"/>
<path d="M14.3426 1H3.61982C2.91671 1.0099 2.24618 1.29809 1.75515 1.80144C1.26412 2.30479 0.992628 2.98225 1.00015 3.6854V19.0278C0.998266 19.3342 1.08619 19.6345 1.25306 19.8914C1.41993 20.1484 1.65843 20.3509 1.9391 20.4738C2.20557 20.5997 2.50365 20.6428 2.79487 20.5977C3.0861 20.5525 3.35709 20.421 3.57287 20.2203L8.59625 15.7697C8.71097 15.6783 8.85332 15.6285 9 15.6285C9.14669 15.6285 9.28903 15.6783 9.40375 15.7697L14.4271 20.2203C14.6442 20.4188 14.9151 20.5488 15.2057 20.5939C15.4964 20.639 15.7939 20.5972 16.0609 20.4738C16.3416 20.3509 16.5801 20.1484 16.7469 19.8914C16.9138 19.6345 17.0017 19.3342 16.9999 19.0278V3.6854C17.0036 3.33408 16.9376 2.98551 16.8057 2.65987C16.6739 2.33422 16.4787 2.03795 16.2316 1.78822C15.9845 1.53848 15.6903 1.34023 15.366 1.20493C15.0418 1.06963 14.694 0.99998 14.3426 1ZM16.0233 19.0278C16.0273 19.1515 15.9946 19.2736 15.9295 19.3788C15.8643 19.484 15.7696 19.5677 15.6572 19.6194C15.5548 19.6676 15.4403 19.6845 15.3284 19.6678C15.2164 19.6511 15.1119 19.6015 15.0281 19.5255L10.0047 15.0842C9.71839 14.8426 9.35584 14.7101 8.98122 14.7101C8.6066 14.7101 8.24406 14.8426 7.95777 15.0842L2.93439 19.5255C2.85055 19.6015 2.74604 19.6511 2.63407 19.6678C2.5221 19.6845 2.40769 19.6676 2.30529 19.6194C2.19284 19.5677 2.09812 19.484 2.03299 19.3788C1.96785 19.2736 1.93519 19.1515 1.9391 19.0278V3.6854C1.93155 3.23126 2.10411 2.7926 2.41906 2.46534C2.73401 2.13807 3.16573 1.94881 3.61982 1.93895H14.3426C14.7967 1.94881 15.2284 2.13807 15.5434 2.46534C15.8583 2.7926 16.0309 3.23126 16.0233 3.6854V19.0278Z"/>
</mask>
<path d="M14.3426 1H3.61982C2.91671 1.0099 2.24618 1.29809 1.75515 1.80144C1.26412 2.30479 0.992628 2.98225 1.00015 3.6854V19.0278C0.998266 19.3342 1.08619 19.6345 1.25306 19.8914C1.41993 20.1484 1.65843 20.3509 1.9391 20.4738C2.20557 20.5997 2.50365 20.6428 2.79487 20.5977C3.0861 20.5525 3.35709 20.421 3.57287 20.2203L8.59625 15.7697C8.71097 15.6783 8.85332 15.6285 9 15.6285C9.14669 15.6285 9.28903 15.6783 9.40375 15.7697L14.4271 20.2203C14.6442 20.4188 14.9151 20.5488 15.2057 20.5939C15.4964 20.639 15.7939 20.5972 16.0609 20.4738C16.3416 20.3509 16.5801 20.1484 16.7469 19.8914C16.9138 19.6345 17.0017 19.3342 16.9999 19.0278V3.6854C17.0036 3.33408 16.9376 2.98551 16.8057 2.65987C16.6739 2.33422 16.4787 2.03795 16.2316 1.78822C15.9845 1.53848 15.6903 1.34023 15.366 1.20493C15.0418 1.06963 14.694 0.99998 14.3426 1ZM16.0233 19.0278C16.0273 19.1515 15.9946 19.2736 15.9295 19.3788C15.8643 19.484 15.7696 19.5677 15.6572 19.6194C15.5548 19.6676 15.4403 19.6845 15.3284 19.6678C15.2164 19.6511 15.1119 19.6015 15.0281 19.5255L10.0047 15.0842C9.71839 14.8426 9.35584 14.7101 8.98122 14.7101C8.6066 14.7101 8.24406 14.8426 7.95777 15.0842L2.93439 19.5255C2.85055 19.6015 2.74604 19.6511 2.63407 19.6678C2.5221 19.6845 2.40769 19.6676 2.30529 19.6194C2.19284 19.5677 2.09812 19.484 2.03299 19.3788C1.96785 19.2736 1.93519 19.1515 1.9391 19.0278V3.6854C1.93155 3.23126 2.10411 2.7926 2.41906 2.46534C2.73401 2.13807 3.16573 1.94881 3.61982 1.93895H14.3426C14.7967 1.94881 15.2284 2.13807 15.5434 2.46534C15.8583 2.7926 16.0309 3.23126 16.0233 3.6854V19.0278Z" fill="black"/>
<path d="M14.3426 1H3.61982C2.91671 1.0099 2.24618 1.29809 1.75515 1.80144C1.26412 2.30479 0.992628 2.98225 1.00015 3.6854V19.0278C0.998266 19.3342 1.08619 19.6345 1.25306 19.8914C1.41993 20.1484 1.65843 20.3509 1.9391 20.4738C2.20557 20.5997 2.50365 20.6428 2.79487 20.5977C3.0861 20.5525 3.35709 20.421 3.57287 20.2203L8.59625 15.7697C8.71097 15.6783 8.85332 15.6285 9 15.6285C9.14669 15.6285 9.28903 15.6783 9.40375 15.7697L14.4271 20.2203C14.6442 20.4188 14.9151 20.5488 15.2057 20.5939C15.4964 20.639 15.7939 20.5972 16.0609 20.4738C16.3416 20.3509 16.5801 20.1484 16.7469 19.8914C16.9138 19.6345 17.0017 19.3342 16.9999 19.0278V3.6854C17.0036 3.33408 16.9376 2.98551 16.8057 2.65987C16.6739 2.33422 16.4787 2.03795 16.2316 1.78822C15.9845 1.53848 15.6903 1.34023 15.366 1.20493C15.0418 1.06963 14.694 0.99998 14.3426 1ZM16.0233 19.0278C16.0273 19.1515 15.9946 19.2736 15.9295 19.3788C15.8643 19.484 15.7696 19.5677 15.6572 19.6194C15.5548 19.6676 15.4403 19.6845 15.3284 19.6678C15.2164 19.6511 15.1119 19.6015 15.0281 19.5255L10.0047 15.0842C9.71839 14.8426 9.35584 14.7101 8.98122 14.7101C8.6066 14.7101 8.24406 14.8426 7.95777 15.0842L2.93439 19.5255C2.85055 19.6015 2.74604 19.6511 2.63407 19.6678C2.5221 19.6845 2.40769 19.6676 2.30529 19.6194C2.19284 19.5677 2.09812 19.484 2.03299 19.3788C1.96785 19.2736 1.93519 19.1515 1.9391 19.0278V3.6854C1.93155 3.23126 2.10411 2.7926 2.41906 2.46534C2.73401 2.13807 3.16573 1.94881 3.61982 1.93895H14.3426C14.7967 1.94881 15.2284 2.13807 15.5434 2.46534C15.8583 2.7926 16.0309 3.23126 16.0233 3.6854V19.0278Z" stroke="black" stroke-width="0.2" mask="url(#path-1-outside-1_757_3287)"/>
</svg>
