<svg width="14" height="18" viewBox="0 0 14 18" fill="none" xmlns="http://www.w3.org/2000/svg">
<path d="M11.7464 0H1.64611C0.755982 0 0 0.717914 0 1.64611V16.581C0.00261936 17.7591 1.44159 18.3119 2.25967 17.4849L6.1096 13.6361C6.41813 13.3142 6.97434 13.3142 7.28287 13.6361L11.1328 17.4849C11.9512 18.3122 13.39 17.7586 13.3925 16.581V1.64611C13.3925 0.717914 12.6365 0 11.7464 0V0ZM12.3447 16.581C12.3434 16.8305 12.0334 16.9128 11.873 16.7434C11.1033 15.9726 8.90847 13.7784 8.02442 12.8959C7.32897 12.1686 6.06455 12.1684 5.36941 12.8945C4.75871 13.5041 3.56331 14.6991 2.62097 15.6412L1.52468 16.737C1.36671 16.9046 1.05277 16.8487 1.04771 16.5905V1.64611C1.04771 1.31146 1.31897 1.04774 1.64611 1.04774H11.7463C12.073 1.04774 12.3447 1.31104 12.3447 1.64611V16.581Z" fill="#A3A3A3"/>
</svg>
