<svg width="18" height="21" viewBox="0 0 18 21" fill="none" xmlns="http://www.w3.org/2000/svg">
<path d="M3.61982 0.949995V0.95H14.3426C14.7006 0.94998 15.055 1.02094 15.3853 1.15879C15.7156 1.29663 16.0154 1.49861 16.2671 1.75305C16.5189 2.00748 16.7177 2.30932 16.8521 2.6411C16.9864 2.97282 17.0536 3.32788 17.0499 3.68575C17.0499 3.68581 17.0498 3.68587 17.0498 3.68593L17.0499 19.0275V19.0278H16.9999C17.0017 19.3342 16.9138 19.6345 16.7469 19.8914C16.5801 20.1484 16.3416 20.3509 16.0609 20.4738L3.61982 0.949995ZM3.61982 0.949995L3.61912 0.950005C2.90277 0.96009 2.21963 1.25371 1.71936 1.76653C1.21915 2.27928 0.942559 2.96938 0.950152 3.68566V19.0277V19.0278H1.00015L3.61982 0.949995ZM15.9733 19.0278L15.9734 19.0294C15.977 19.1433 15.9469 19.2556 15.8869 19.3525C15.827 19.4494 15.7398 19.5264 15.6363 19.5739L15.6358 19.5741C15.5424 19.6182 15.4379 19.6336 15.3358 19.6183C15.2336 19.6031 15.1382 19.5579 15.0617 19.4884L15.0612 19.488L10.0378 15.0468L10.0378 15.0468L10.0369 15.046C9.74162 14.7968 9.36765 14.6601 8.98122 14.6601C8.5948 14.6601 8.22083 14.7968 7.92552 15.046L7.92551 15.046L7.92465 15.0468L2.90127 19.488L2.90079 19.4884C2.82427 19.5579 2.72888 19.6031 2.62669 19.6183C2.5245 19.6336 2.42007 19.6182 2.32661 19.5741L2.32616 19.5739C2.22265 19.5264 2.13546 19.4494 2.0755 19.3525C2.01554 19.2556 1.98548 19.1433 1.98908 19.0294H1.9891V19.0278V3.6854H1.98911L1.98909 3.68456C1.98176 3.24364 2.1493 2.81775 2.45509 2.50001C2.76075 2.18239 3.17969 1.99867 3.62037 1.98895H14.3421C14.7828 1.99867 15.2017 2.18239 15.5074 2.50001C15.8131 2.81775 15.9807 3.24364 15.9733 3.68456V3.6854L15.9733 19.0278Z" fill="black" stroke="black" stroke-width="0.1"/>
</svg>
