<svg width="6" height="12" viewBox="0 0 6 12" fill="none" xmlns="http://www.w3.org/2000/svg">
<path d="M1.33196 2.32412C1.33196 2.62639 1.34328 4.10526 1.34328 4.10526H0V6L1.33196 5.99653L1.34328 12H4.02984V6L5.75045 5.99653C5.75045 5.99653 5.88041 5.16445 5.96081 4.10526C5.72997 4.10526 4.02984 4.10526 4.02984 4.10526C4.02984 4.10526 3.98615 2.79319 3.98615 2.58733C3.98615 2.38093 4.27442 2.10319 4.5594 2.10319H6C6 1.82814 6 0.877737 6 0C5.25787 0 4.41365 0 4.04129 0C1.26658 0 1.33196 2.02213 1.33196 2.32412Z" fill="#9344FC"/>
</svg>
