<svg width="16" height="16" viewBox="0 0 16 16" fill="none" xmlns="http://www.w3.org/2000/svg">
<path d="M13.9429 16H10.2286C10.077 16 9.93167 15.9398 9.82451 15.8326C9.71735 15.7255 9.65714 15.5801 9.65714 15.4286C9.65714 15.277 9.71735 15.1317 9.82451 15.0245C9.93167 14.9173 10.077 14.8571 10.2286 14.8571H13.9429C14.1853 14.8571 14.4179 14.7608 14.5894 14.5894C14.7608 14.4179 14.8571 14.1853 14.8571 13.9429V10.2286C14.8571 10.077 14.9173 9.93167 15.0245 9.82451C15.1317 9.71735 15.277 9.65714 15.4286 9.65714C15.5801 9.65714 15.7255 9.71735 15.8326 9.82451C15.9398 9.93167 16 10.077 16 10.2286V13.9429C15.9985 14.488 15.7813 15.0103 15.3958 15.3958C15.0103 15.7813 14.488 15.9985 13.9429 16ZM6.34286 15.4286C6.34286 15.277 6.28265 15.1317 6.17549 15.0245C6.06833 14.9173 5.92298 14.8571 5.77143 14.8571H2.05714C1.81466 14.8571 1.58211 14.7608 1.41065 14.5894C1.23918 14.4179 1.14286 14.1853 1.14286 13.9429V10.2286C1.14286 10.077 1.08265 9.93167 0.97549 9.82451C0.868326 9.71735 0.722981 9.65714 0.571429 9.65714C0.419876 9.65714 0.274531 9.71735 0.167368 9.82451C0.0602039 9.93167 0 10.077 0 10.2286V13.9429C0.00150796 14.488 0.218726 15.0103 0.604189 15.3958C0.989652 15.7813 1.51202 15.9985 2.05714 16H5.77143C5.92298 16 6.06833 15.9398 6.17549 15.8326C6.28265 15.7255 6.34286 15.5801 6.34286 15.4286ZM1.14286 5.77143V2.05714C1.14286 1.81466 1.23918 1.58211 1.41065 1.41065C1.58211 1.23918 1.81466 1.14286 2.05714 1.14286H5.77143C5.92298 1.14286 6.06833 1.08265 6.17549 0.97549C6.28265 0.868326 6.34286 0.722981 6.34286 0.571429C6.34286 0.419876 6.28265 0.274531 6.17549 0.167368C6.06833 0.0602039 5.92298 0 5.77143 0H2.05714C1.51202 0.00150796 0.989652 0.218726 0.604189 0.604189C0.218726 0.989652 0.00150796 1.51202 0 2.05714V5.77143C0 5.92298 0.0602039 6.06833 0.167368 6.17549C0.274531 6.28265 0.419876 6.34286 0.571429 6.34286C0.722981 6.34286 0.868326 6.28265 0.97549 6.17549C1.08265 6.06833 1.14286 5.92298 1.14286 5.77143ZM16 5.77143V2.05714C15.9985 1.51202 15.7813 0.989652 15.3958 0.604189C15.0103 0.218726 14.488 0.00150796 13.9429 0H10.2286C10.077 0 9.93167 0.0602039 9.82451 0.167368C9.71735 0.274531 9.65714 0.419876 9.65714 0.571429C9.65714 0.722981 9.71735 0.868326 9.82451 0.97549C9.93167 1.08265 10.077 1.14286 10.2286 1.14286H13.9429C14.1853 1.14286 14.4179 1.23918 14.5894 1.41065C14.7608 1.58211 14.8571 1.81466 14.8571 2.05714V5.77143C14.8571 5.92298 14.9173 6.06833 15.0245 6.17549C15.1317 6.28265 15.277 6.34286 15.4286 6.34286C15.5801 6.34286 15.7255 6.28265 15.8326 6.17549C15.9398 6.06833 16 5.92298 16 5.77143Z" fill="white"/>
</svg>
