<svg width="16" height="16" viewBox="0 0 16 16" fill="none" xmlns="http://www.w3.org/2000/svg">
<path fill-rule="evenodd" clip-rule="evenodd" d="M7.99888 0.812098C9.26964 0.00868914 10.9577 -0.213264 12.4161 0.254088C15.5883 1.27711 16.573 4.73536 15.6922 7.48711C14.3331 11.8089 8.52876 15.0327 8.28258 15.1679C8.19505 15.2164 8.09814 15.2406 8.00123 15.2406C7.90432 15.2406 7.80819 15.2172 7.72066 15.1695C7.47604 15.0359 1.71385 11.8597 0.30945 7.48789C0.308669 7.48789 0.308669 7.48711 0.308669 7.48711C-0.572892 4.73458 0.408704 1.27554 3.57779 0.254088C5.06582 -0.227332 6.68748 -0.0155382 7.99888 0.812098ZM3.93729 1.37011C1.37311 2.19696 0.72913 4.95497 1.42547 7.12995C2.52117 10.539 6.85004 13.2954 8.00045 13.9777C9.15476 13.2884 13.5149 10.5015 14.5754 7.13308C15.2718 4.95575 14.6254 2.19774 12.0573 1.37011C10.8132 0.970747 9.36186 1.2138 8.35995 1.98908C8.1505 2.15007 7.85977 2.1532 7.64876 1.99376C6.58745 1.19583 5.20102 0.962151 3.93729 1.37011ZM11.3071 2.92214C12.3723 3.26679 13.1187 4.21009 13.2101 5.32533C13.2359 5.6481 12.996 5.93101 12.6732 5.9568C12.6568 5.95837 12.6411 5.95915 12.6247 5.95915C12.3223 5.95915 12.0659 5.72704 12.0409 5.42068C11.9894 4.77826 11.5595 4.23588 10.9476 4.03816C10.6389 3.93812 10.4701 3.60754 10.5693 3.3004C10.6701 2.99248 10.9976 2.82523 11.3071 2.92214Z" fill="black"/>
</svg>
