<svg width="12" height="13" viewBox="0 0 12 13" fill="none" xmlns="http://www.w3.org/2000/svg">
<path fill-rule="evenodd" clip-rule="evenodd" d="M11.6821 2.07108C11.8607 2.54287 11.954 3.04331 11.9614 3.54776C11.9985 4.18254 11.9987 4.39014 12 5.99695L12 6.01932C12 7.64727 11.9913 7.85051 11.9627 8.49156C11.9527 8.99067 11.8587 9.48245 11.6835 9.94891C11.3709 10.7539 10.7346 11.3909 9.92892 11.7035C9.46246 11.8787 8.97001 11.9727 8.47223 11.9827C7.83585 12.02 7.62728 12.02 6 12.02C4.37272 12.02 4.16948 12.0113 3.52777 11.9827C3.02799 11.9667 2.53554 11.8641 2.07175 11.6828C1.26544 11.3709 0.629054 10.7339 0.316526 9.92892C0.14127 9.46179 0.0473123 8.97001 0.0373167 8.47157C0 7.83452 0 7.62661 0 5.99933C0 4.37206 0.00866281 4.16881 0.0373167 3.5271C0.0466459 3.02932 0.14127 2.53687 0.316526 2.07108C0.628387 1.26544 1.26544 0.628387 2.07108 0.316526C2.53687 0.141271 3.02932 0.0473123 3.5271 0.0366504C4.16348 0 4.37206 0 5.99933 0C7.62661 0 7.82985 0.00799649 8.4709 0.0366504C8.96935 0.0473123 9.4618 0.141271 9.92759 0.316526C10.7332 0.628387 11.3696 1.26544 11.6821 2.07108ZM2.9147 5.996C2.9147 7.69791 4.29343 9.07663 5.99534 9.07663C7.69591 9.07663 9.07597 7.69791 9.07597 5.996C9.07597 4.29409 7.69591 2.91537 5.99534 2.91537C4.29343 2.91537 2.9147 4.29409 2.9147 5.996ZM8.48023 2.80142C8.48023 3.19858 8.80076 3.51977 9.19858 3.51977C9.59507 3.51977 9.91626 3.19858 9.91626 2.80142C9.91626 2.40426 9.59507 2.08307 9.19858 2.08307C8.80076 2.08307 8.48023 2.40426 8.48023 2.80142ZM7.99685 5.99599C7.99685 7.10117 7.10092 7.9971 5.99574 7.9971C4.89056 7.9971 3.99463 7.10117 3.99463 5.99599C3.99463 4.89081 4.89056 3.99488 5.99574 3.99488C7.10092 3.99488 7.99685 4.89081 7.99685 5.99599Z" fill="#9344FC"/>
</svg>
