<svg width="10" height="12" viewBox="0 0 10 12" fill="none" xmlns="http://www.w3.org/2000/svg">
<path d="M9.37893 7.45249C9.76042 6.73607 9.95938 5.93665 9.95818 5.12499C9.95818 2.38653 7.7383 0.166656 4.99985 0.166656C2.26139 0.166656 0.0415112 2.38653 0.0415112 5.12499C0.039504 6.29465 0.452964 7.42702 1.20818 8.3202L1.21401 8.32749C1.21605 8.32924 1.2178 8.33157 1.21926 8.33332H1.20818L4.15051 11.4571C4.25958 11.5729 4.39118 11.6651 4.53721 11.7282C4.68325 11.7912 4.84063 11.8237 4.9997 11.8237C5.15876 11.8237 5.31615 11.7912 5.46218 11.7282C5.60822 11.6651 5.73981 11.5729 5.84889 11.4571L8.79151 8.33332H8.78043L8.7851 8.32778L8.78568 8.3272C8.80668 8.30211 8.82768 8.27703 8.84839 8.25136C9.05069 8.00272 9.22847 7.73508 9.37922 7.4522L9.37893 7.45249ZM5.00101 7.02082C4.53688 7.02082 4.09176 6.83645 3.76357 6.50826C3.43539 6.18007 3.25101 5.73495 3.25101 5.27082C3.25101 4.80669 3.43539 4.36157 3.76357 4.03339C4.09176 3.7052 4.53688 3.52082 5.00101 3.52082C5.46514 3.52082 5.91026 3.7052 6.23845 4.03339C6.56664 4.36157 6.75101 4.80669 6.75101 5.27082C6.75101 5.73495 6.56664 6.18007 6.23845 6.50826C5.91026 6.83645 5.46514 7.02082 5.00101 7.02082Z" fill="#9344FC"/>
</svg>
