<svg width="20" height="19" viewBox="0 0 20 19" fill="none" xmlns="http://www.w3.org/2000/svg">
<path d="M18.7886 1.20018C18.3213 0.73813 17.6297 0.565995 16.9848 0.74719L1.9472 4.95996C1.26682 5.14206 0.784567 5.66481 0.654659 6.32889C0.521947 7.00474 0.985505 7.8627 1.59112 8.22147L6.29306 11.0055C6.77531 11.2909 7.39775 11.2193 7.79682 10.8316L13.181 5.61226C13.452 5.34047 13.9006 5.34047 14.1717 5.61226C14.4427 5.875 14.4427 6.3008 14.1717 6.57259L8.77814 11.7928C8.37814 12.1797 8.30337 12.7821 8.59777 13.2496L11.4707 17.8248C11.8072 18.3684 12.3866 18.6764 13.0221 18.6764C13.0969 18.6764 13.181 18.6764 13.2558 18.6673C13.9848 18.5767 14.5642 18.0966 14.7792 17.4171L19.2372 2.9487C19.4334 2.33264 19.2559 1.66222 18.7886 1.20018Z" fill="#9344FC"/>
</svg>
