<svg width="21" height="21" viewBox="0 0 21 21" fill="none" xmlns="http://www.w3.org/2000/svg">
<path fill-rule="evenodd" clip-rule="evenodd" d="M17.6173 4.30631V9.60267C19.2887 10.7118 20.4211 12.6268 20.421 14.7942C20.421 18.2139 17.6354 21 14.2158 21C12.3743 20.9973 10.6285 20.1797 9.44737 18.7669H2.28325C1.02443 18.7669 0 17.7267 0 16.4679V4.30631C0 3.04753 1.02443 2.00783 2.28325 2.00783H2.52967V1.6488C2.52967 0.738212 3.26788 0 4.17847 0C5.08906 0 5.82727 0.738212 5.82727 1.6488V2.00783H11.7901V1.6488C11.7901 0.750679 12.5182 0.0225863 13.4163 0.0225863C14.3144 0.0225863 15.0425 0.750679 15.0425 1.6488V2.00783H15.3277C16.5865 2.00783 17.6173 3.04753 17.6173 4.30631ZM13.3933 0.923781C12.9998 0.930737 12.6866 1.25535 12.6935 1.6488V3.40819H14.139V1.6488V1.63525C14.1348 1.23805 13.8094 0.919489 13.4123 0.92369L13.3933 0.923781ZM4.17386 0.923645C3.76907 0.919354 3.43741 1.24401 3.43312 1.6488V3.40819H4.92382V1.6488C4.92382 1.24256 4.58222 0.92369 4.17594 0.92369L4.17386 0.923645ZM2.28325 2.91129C1.52259 2.91129 0.903453 3.54565 0.903453 4.30631V5.75716H16.7139V4.30631C16.711 3.5405 16.0935 2.91901 15.3277 2.91129H15.0425V3.87871C15.0426 3.8853 15.0425 3.8919 15.0423 3.89849C15.0345 4.13452 14.8367 4.3195 14.6007 4.31164H12.2237C12.2154 4.31187 12.2071 4.31187 12.1988 4.31164C11.9664 4.30495 11.7834 4.11112 11.7901 3.87871V2.91129H5.82727V3.87871C5.82727 4.12815 5.61392 4.31164 5.36448 4.31164H2.98749C2.73801 4.31164 2.52967 4.12815 2.52967 3.87871V2.91129H2.28325ZM0.903453 16.4679C0.903453 17.2285 1.52259 17.8634 2.28325 17.8634H8.82168C8.2918 16.9289 8.01413 15.8726 8.01584 14.7982C8.01584 11.3786 10.7997 8.58841 14.2193 8.58841C15.078 8.58809 15.9276 8.76616 16.7139 9.11141V6.66062H0.903453V16.4679ZM8.91749 14.7902C8.91749 17.7164 11.2896 20.0885 14.2158 20.0885C17.1407 20.0852 19.5109 17.715 19.5142 14.7902V14.7902C19.5142 11.864 17.142 9.49181 14.2158 9.49181C11.2896 9.49181 8.91749 11.864 8.91749 14.7902ZM14.3649 14.7917H16.3439C16.5934 14.7917 16.7956 14.9939 16.7956 15.2434C16.7956 15.4929 16.5934 15.6951 16.3439 15.6951H13.9216C13.6704 15.6956 13.4654 15.4942 13.4614 15.243V12.0736C13.4614 11.8242 13.6637 11.6219 13.9132 11.6219C14.1626 11.6219 14.3649 11.8242 14.3649 12.0736V14.7917Z" fill="black"/>
</svg>
