<svg width="20" height="20" viewBox="0 0 20 20" fill="none" xmlns="http://www.w3.org/2000/svg">
<path fill-rule="evenodd" clip-rule="evenodd" d="M9.06667 20H10.9333C11.5642 20 12.0967 19.5275 12.1725 18.9025L12.3717 17.3358C12.7692 17.2075 13.1525 17.0483 13.5167 16.8617L14.7625 17.8292C15.2658 18.2208 15.9775 18.175 16.4117 17.7275L17.7242 16.415C18.1758 15.9767 18.2217 15.2658 17.83 14.7608L16.8625 13.5158C17.0483 13.1517 17.2075 12.7683 17.3367 12.3708L18.9 12.1717C19.5275 12.0967 20 11.5642 20 10.9333V9.06667C20 8.43583 19.5275 7.90333 18.9033 7.8275L17.3367 7.62833C17.2083 7.23083 17.0492 6.8475 16.8625 6.48333L17.83 5.2375C18.2208 4.73333 18.1758 4.0225 17.7283 3.58833L16.4158 2.27583C15.9775 1.82417 15.2675 1.77917 14.7617 2.17L13.5167 3.1375C13.1525 2.95167 12.7692 2.7925 12.3708 2.66333L12.1717 1.1C12.0967 0.4725 11.5642 0 10.9333 0H9.06667C8.43583 0 7.90333 0.4725 7.82833 1.0975L7.62917 2.66417C7.23083 2.79333 6.8475 2.9525 6.48333 3.13833L5.23833 2.17C4.735 1.78 4.02333 1.82417 3.58917 2.27167L2.27667 3.58417C1.825 4.0225 1.77917 4.73417 2.17083 5.23917L3.1375 6.48417C2.95167 6.84833 2.7925 7.23167 2.66333 7.62917L1.1 7.82833C0.4725 7.90333 0 8.43583 0 9.06667V10.9333C0 11.5642 0.4725 12.0967 1.0975 12.1733L2.66417 12.3725C2.7925 12.77 2.95167 13.1533 3.13833 13.5175L2.17083 14.7633C1.78 15.2675 1.825 15.9783 2.2725 16.4125L3.585 17.725C4.02333 18.1758 4.73417 18.2208 5.23917 17.83L6.48417 16.8625C6.84833 17.0483 7.23167 17.2075 7.62917 17.3367L7.82833 18.9C7.90333 19.5275 8.43583 20 9.06667 20ZM6.645 16.0025C6.58167 15.9675 6.51083 15.95 6.44167 15.95C6.35083 15.95 6.26083 15.98 6.185 16.0367L4.72667 17.17C4.55667 17.3 4.3225 17.2883 4.17667 17.1375L2.85583 15.8167C2.70917 15.675 2.6975 15.44 2.82833 15.2717L3.96167 13.8133C4.065 13.6817 4.07833 13.5008 3.99667 13.355C3.74 12.8958 3.53333 12.3983 3.38333 11.8767C3.3375 11.7167 3.20083 11.5992 3.03583 11.5783L1.19917 11.3442C0.994167 11.32 0.833333 11.1392 0.833333 10.9333V9.06667C0.833333 8.86083 0.994167 8.68 1.20333 8.655L3.03667 8.42167C3.20167 8.40083 3.33833 8.28333 3.38417 8.12333C3.53417 7.60167 3.74 7.10417 3.9975 6.645C4.07917 6.49917 4.065 6.31833 3.9625 6.18667L2.82917 4.72833C2.69917 4.56 2.71083 4.325 2.86167 4.17833L4.1825 2.85667C4.325 2.71 4.55917 2.69833 4.7275 2.82917L6.18583 3.9625C6.31833 4.06417 6.49917 4.07917 6.645 3.99667C7.1025 3.74083 7.6 3.53417 8.12333 3.38417C8.28333 3.3375 8.40083 3.20083 8.42167 3.03583L8.65583 1.19917C8.68 0.994167 8.86083 0.833333 9.06667 0.833333H10.9333C11.1392 0.833333 11.32 0.994167 11.3458 1.20417L11.5792 3.0375C11.6 3.2025 11.7175 3.33917 11.8775 3.385C12.4008 3.53583 12.8983 3.74167 13.3558 3.99833C13.5017 4.08 13.6825 4.06583 13.815 3.96333L15.2733 2.83C15.4417 2.69917 15.6775 2.71083 15.8233 2.8625L17.1442 4.18333C17.2908 4.325 17.3025 4.56 17.1717 4.72833L16.0383 6.18667C15.935 6.31833 15.9217 6.49917 16.0033 6.645C16.26 7.10417 16.4667 7.60167 16.6167 8.12333C16.6625 8.28333 16.7992 8.40083 16.9642 8.42167L18.8008 8.65583C19.0058 8.68 19.1667 8.86083 19.1667 9.06667V10.9333C19.1667 11.1392 19.0058 11.32 18.7967 11.3458L16.9633 11.5792C16.7983 11.6 16.6617 11.7175 16.6158 11.8775C16.4658 12.3992 16.2592 12.8967 16.0025 13.3558C15.9208 13.5017 15.935 13.6825 16.0375 13.8142L17.1708 15.2725C17.3008 15.4408 17.2892 15.6758 17.1383 15.8225L15.8175 17.1433C15.6742 17.2908 15.4392 17.3017 15.2717 17.1717L13.8133 16.0383C13.6825 15.9358 13.5008 15.9217 13.355 16.0033C12.8958 16.26 12.3983 16.4667 11.8767 16.6167C11.7167 16.6625 11.5992 16.7992 11.5783 16.9642L11.3442 18.8008C11.32 19.0058 11.1392 19.1667 10.9333 19.1667H9.06667C8.86083 19.1667 8.68 19.0058 8.655 18.7967L8.42167 16.9633C8.40083 16.7983 8.28333 16.6617 8.12333 16.6158C7.60167 16.4658 7.10417 16.2592 6.645 16.0025ZM5.83334 10C5.83334 12.2975 7.70251 14.1667 10 14.1667C12.2975 14.1667 14.1667 12.2975 14.1667 10C14.1667 7.7025 12.2975 5.83333 10 5.83333C7.70251 5.83333 5.83334 7.7025 5.83334 10ZM6.66667 10C6.66667 8.16167 8.16167 6.66667 10 6.66667C11.8383 6.66667 13.3333 8.16167 13.3333 10C13.3333 11.8383 11.8383 13.3333 10 13.3333C8.16167 13.3333 6.66667 11.8383 6.66667 10Z" fill="black"/>
</svg>
