<svg width="17" height="18" viewBox="0 0 15 16" fill="none" xmlns="http://www.w3.org/2000/svg">
<path fill-rule="evenodd" clip-rule="evenodd" d="M7.59872 0C8.12862 0 8.64373 0.227016 9.01303 0.621592C9.38159 1.01848 9.58512 1.56286 9.56958 2.11496C9.57106 2.23927 9.61028 2.3829 9.68133 2.50876C9.799 2.71724 9.98477 2.86395 10.2053 2.92418C10.4259 2.98132 10.6568 2.95044 10.8529 2.82921C11.8002 2.26476 13.0058 2.60296 13.5468 3.58361L14.0079 4.41678C14.0197 4.43917 14.0301 4.46079 14.039 4.48318C14.5289 5.44916 14.2018 6.66532 13.2915 7.2205C13.159 7.30003 13.0517 7.41123 12.9777 7.54558C12.863 7.75329 12.8311 8.00039 12.8889 8.2274C12.9481 8.45905 13.0894 8.65132 13.2885 8.77023C13.7378 9.03972 14.073 9.49375 14.207 10.018C14.3409 10.5416 14.2677 11.1099 14.0064 11.5786L13.515 12.4326C12.974 13.4024 11.7684 13.7383 10.8307 13.1731C10.7056 13.0982 10.5613 13.0573 10.4177 13.0534H10.4133C10.1994 13.0534 9.97958 13.1484 9.81973 13.3144C9.65765 13.4835 9.56884 13.709 9.57032 13.9484C9.56514 15.0827 8.68073 16 7.59872 16H6.67139C5.5842 16 4.6998 15.078 4.6998 13.9437C4.69832 13.804 4.65983 13.6588 4.58804 13.5329C4.47185 13.3214 4.28387 13.17 4.06702 13.1098C3.85166 13.0496 3.61557 13.0828 3.42166 13.2001C2.95689 13.4704 2.40996 13.536 1.90966 13.3893C1.4101 13.2418 0.978633 12.8835 0.725523 12.4087L0.262968 11.577C-0.278036 10.5979 0.0439018 9.34318 0.980853 8.77796C1.24654 8.61812 1.41158 8.32006 1.41158 8.00039C1.41158 7.68071 1.24654 7.38188 0.980853 7.22205C0.0431618 6.65373 -0.278036 5.39588 0.262228 4.41678L0.764008 3.55736C1.29761 2.58906 2.50395 2.24777 3.44461 2.81145C3.57264 2.89098 3.71178 2.93113 3.85314 2.93268C4.31421 2.93268 4.6998 2.53578 4.7072 2.04778C4.70424 1.50958 4.90776 0.993002 5.27854 0.60306C5.65081 0.213889 6.14519 0 6.67139 0H7.59872ZM7.59872 1.15825H6.67139C6.44196 1.15825 6.22734 1.25168 6.06526 1.42001C5.90392 1.58911 5.81585 1.81381 5.81733 2.05318C5.80179 3.18209 4.91738 4.09092 3.84647 4.09092C3.50307 4.08706 3.17225 3.99054 2.8851 3.8114C2.48175 3.57203 1.95481 3.71951 1.71872 4.14806L1.21768 5.00748C0.988254 5.4229 1.12887 5.97191 1.5374 6.21978C2.14353 6.58578 2.52172 7.26838 2.52172 8.00039C2.52172 8.7324 2.14353 9.41422 1.53592 9.781C1.12961 10.0265 0.988994 10.5725 1.22434 10.9972L1.69134 11.8373C1.80679 12.0542 1.99551 12.211 2.21384 12.2751C2.43143 12.3384 2.67121 12.3114 2.87104 12.1956C3.16485 12.0156 3.50677 11.9222 3.85017 11.9222C4.01965 11.9222 4.18914 11.9446 4.35491 11.9909C4.85521 12.1315 5.28965 12.4805 5.5472 12.9492C5.71446 13.2434 5.80697 13.587 5.80993 13.9376C5.80993 14.4395 6.19625 14.8418 6.67139 14.8418H7.59872C8.07164 14.8418 8.45796 14.4418 8.46018 13.9484C8.45722 13.4032 8.66149 12.8851 9.03523 12.4952C9.4038 12.1106 9.9189 11.8797 10.434 11.8952C10.7715 11.9037 11.0964 11.9986 11.3828 12.1685C11.795 12.4148 12.3212 12.2681 12.5595 11.8434L13.0509 10.9887C13.1605 10.7918 13.1923 10.5447 13.1338 10.3169C13.0761 10.0891 12.9311 9.89141 12.7357 9.77482C12.2783 9.49993 11.9519 9.05671 11.8165 8.52546C11.6825 8.00425 11.7558 7.43516 12.017 6.96646C12.1873 6.65759 12.4367 6.39738 12.7357 6.21823C13.1368 5.97346 13.2774 5.42599 13.0443 4.99976C13.0347 4.98277 13.0258 4.96501 13.0184 4.94648L12.5847 4.16196C12.3486 3.73341 11.8231 3.58593 11.4109 3.8307C10.9654 4.10559 10.4355 4.18435 9.9263 4.04459C9.41786 3.90715 8.99157 3.57126 8.72587 3.09715C8.55565 2.80064 8.46314 2.45548 8.46018 2.10415C8.46684 1.84007 8.37803 1.60301 8.21669 1.42927C8.0561 1.25631 7.83037 1.15825 7.59872 1.15825ZM7.13831 5.38515C8.52006 5.38515 9.64425 6.55883 9.64425 8.00046C9.64425 9.44209 8.52006 10.6142 7.13831 10.6142C5.75657 10.6142 4.63237 9.44209 4.63237 8.00046C4.63237 6.55883 5.75657 5.38515 7.13831 5.38515ZM7.13831 6.54339C6.36862 6.54339 5.74251 7.19741 5.74251 8.00046C5.74251 8.80351 6.36862 9.45599 7.13831 9.45599C7.908 9.45599 8.53412 8.80351 8.53412 8.00046C8.53412 7.19741 7.908 6.54339 7.13831 6.54339Z" fill="white"/>
</svg>
