<svg width="18" height="15" viewBox="0 0 18 15" fill="none" xmlns="http://www.w3.org/2000/svg">
<path d="M17.27 4.5507L13.2226 0.503294C12.8887 0.169336 12.5499 0 12.2158 0C11.7572 0 11.2216 0.348869 11.2216 1.33209V2.71004C8.28099 2.83821 5.53491 4.04416 3.44043 6.13853C1.22206 8.35673 0.000244459 11.3061 6.34188e-09 14.4432C-3.49155e-05 14.6686 0.144157 14.8688 0.357949 14.9401C0.412497 14.9583 0.468407 14.9671 0.523758 14.9671C0.685342 14.9671 0.841757 14.8922 0.942646 14.7579C3.41571 11.466 7.13911 9.52058 11.2216 9.36695V10.7236C11.2216 11.7068 11.7571 12.0557 12.2158 12.0558H12.2158C12.5499 12.0558 12.8887 11.8864 13.2226 11.5525L17.27 7.50503C17.6634 7.11174 17.88 6.58714 17.88 6.0279C17.88 5.46863 17.6634 4.94403 17.27 4.5507ZM16.5292 6.76423L12.4818 10.8117C12.4042 10.8893 12.3399 10.9384 12.2925 10.9682C12.28 10.9136 12.2692 10.8334 12.2692 10.7237V8.83331C12.2692 8.54402 12.0347 8.30948 11.7454 8.30948C9.41794 8.30948 7.19394 8.84274 5.13526 9.89438C3.65737 10.6494 2.30638 11.6657 1.1623 12.876C1.92339 7.71812 6.37949 3.74631 11.7454 3.74631C12.0347 3.74631 12.2692 3.51178 12.2692 3.22249V1.33209C12.2692 1.22234 12.28 1.14219 12.2924 1.08764C12.3399 1.11743 12.4042 1.16646 12.4818 1.24409L16.5292 5.29154C16.7247 5.48699 16.8323 5.74849 16.8323 6.0279C16.8323 6.30727 16.7247 6.56877 16.5292 6.76423Z" fill="#A3A3A3"/>
</svg>
