<svg width="20" height="20" viewBox="0 0 20 20" fill="none" xmlns="http://www.w3.org/2000/svg">
<path d="M15.1807 19.1667C14.9178 19.1668 14.6588 19.1027 14.4264 18.9798L10.1088 16.7126C10.0753 16.6948 10.038 16.6854 10.0001 16.6854C9.96211 16.6854 9.92476 16.6948 9.8913 16.7126L5.57443 18.9798C5.30692 19.1205 5.00535 19.1835 4.70384 19.1618C4.40233 19.1401 4.11292 19.0345 3.86836 18.857C3.62379 18.6795 3.43384 18.4371 3.31998 18.1573C3.20613 17.8776 3.17292 17.5716 3.22412 17.2739L4.04843 12.4718C4.05476 12.4341 4.05176 12.3955 4.03968 12.3593C4.02761 12.3231 4.00682 12.2904 3.97916 12.2641L0.48937 8.86132C0.272697 8.65041 0.119478 8.3831 0.0470737 8.08966C-0.0253306 7.79622 -0.0140257 7.48838 0.0797075 7.20103C0.173441 6.91368 0.345855 6.65831 0.577415 6.46383C0.808975 6.26936 1.09042 6.14357 1.38987 6.10072L6.2131 5.40105C6.25063 5.3956 6.28626 5.38109 6.31692 5.35878C6.34758 5.33647 6.37233 5.30704 6.38904 5.27303L8.54539 0.902715C8.67896 0.631791 8.88578 0.403641 9.14244 0.244099C9.3991 0.0845581 9.69534 0 9.99763 0C10.2999 0 10.5962 0.0845581 10.8528 0.244099C11.1095 0.403641 11.3163 0.631791 11.4499 0.902715L13.6076 5.27164C13.6245 5.30555 13.6492 5.33489 13.6799 5.35718C13.7105 5.37947 13.7461 5.39405 13.7835 5.39967L18.6109 6.10003C18.9102 6.14313 19.1915 6.26905 19.4229 6.46355C19.6543 6.65805 19.8266 6.91337 19.9203 7.20061C20.014 7.48786 20.0253 7.79557 19.9531 8.08894C19.8808 8.3823 19.7278 8.64961 19.5114 8.86062L16.0182 12.2614C15.9906 12.2877 15.9699 12.3204 15.9578 12.3566C15.9458 12.3928 15.9427 12.4314 15.9489 12.469L16.7732 17.2711C16.8129 17.5032 16.8014 17.741 16.7397 17.9682C16.678 18.1954 16.5675 18.4064 16.4158 18.5865C16.2642 18.7667 16.0751 18.9117 15.8617 19.0114C15.6482 19.1111 15.4156 19.1631 15.18 19.1639L15.1807 19.1667ZM10.0001 15.3009C10.2628 15.3008 10.5215 15.365 10.7537 15.4877L15.0706 17.7542C15.1088 17.776 15.1526 17.786 15.1965 17.7829C15.2404 17.7799 15.2824 17.7638 15.3172 17.7369C15.3535 17.712 15.3817 17.6771 15.3983 17.6364C15.4149 17.5956 15.4192 17.551 15.4107 17.5078L14.5857 12.705C14.5416 12.4465 14.5609 12.1812 14.642 11.9318C14.7231 11.6824 14.8635 11.4564 15.0512 11.2731L18.5444 7.87168C18.5756 7.84117 18.5976 7.80256 18.608 7.7602C18.6184 7.71784 18.6167 7.67343 18.6032 7.63198C18.5896 7.59052 18.5648 7.55367 18.5314 7.52559C18.498 7.49751 18.4574 7.47931 18.4142 7.47306L13.5875 6.77201C13.3277 6.73442 13.0809 6.63418 12.8685 6.47997C12.656 6.32576 12.4844 6.1222 12.3684 5.88688L10.2079 1.51726C10.1885 1.47815 10.1586 1.44523 10.1215 1.42222C10.0844 1.3992 10.0416 1.387 9.99797 1.387C9.95431 1.387 9.91152 1.3992 9.87443 1.42222C9.83734 1.44523 9.80744 1.47815 9.78809 1.51726L7.63173 5.88549C7.51563 6.1209 7.34389 6.32452 7.13135 6.47874C6.91882 6.63296 6.67188 6.73314 6.4119 6.77063L1.5859 7.47306C1.54262 7.47918 1.50192 7.49731 1.46845 7.52541C1.43497 7.5535 1.41007 7.59042 1.39657 7.63197C1.38307 7.67351 1.38152 7.718 1.39209 7.76038C1.40266 7.80277 1.42493 7.84133 1.45637 7.87168L4.94893 11.2731C5.13662 11.4564 5.27702 11.6824 5.35809 11.9318C5.43916 12.1812 5.45849 12.4465 5.41442 12.705L4.58942 17.5078C4.58194 17.551 4.58673 17.5953 4.60325 17.6359C4.61977 17.6765 4.64735 17.7116 4.68287 17.7373C4.71838 17.7629 4.76039 17.7781 4.80412 17.7811C4.84785 17.7841 4.89155 17.7748 4.93023 17.7542L9.2464 15.487C9.47877 15.3648 9.73743 15.3009 10.0001 15.3009Z" fill="black"/>
</svg>
