<svg width="9" height="9" viewBox="0 0 9 9" fill="none" xmlns="http://www.w3.org/2000/svg">
<path d="M6.453 0C7.9785 0 9 1.071 9 2.664V6.34095C9 7.929 7.9785 9 6.453 9H2.5515C1.026 9 0 7.929 0 6.34095V2.664C0 1.071 1.026 0 2.5515 0H6.453ZM6.381 3.15C6.228 2.997 5.976 2.997 5.823 3.15L3.9645 5.0085L3.177 4.221C3.024 4.068 2.772 4.068 2.619 4.221C2.466 4.374 2.466 4.6215 2.619 4.779L3.69 5.8455C3.7665 5.922 3.8655 5.958 3.9645 5.958C4.068 5.958 4.167 5.922 4.2435 5.8455L6.381 3.708C6.534 3.555 6.534 3.3075 6.381 3.15Z" fill="#00C262"/>
</svg>
