<svg width="17" height="17" viewBox="0 0 17 17" fill="none" xmlns="http://www.w3.org/2000/svg">
<path fill-rule="evenodd" clip-rule="evenodd" d="M3.82079 4.42676C3.5834 4.66415 3.5834 5.04786 3.82079 5.28526C4.05818 5.52265 4.4419 5.52265 4.67929 5.28526L7.8929 2.07165V12.7489C7.8929 13.084 8.16429 13.356 8.50004 13.356C8.83579 13.356 9.10718 13.084 9.10718 12.7489V2.07165L12.3208 5.28526C12.4392 5.40365 12.5946 5.46315 12.75 5.46315C12.9055 5.46315 13.0609 5.40365 13.1793 5.28526C13.4167 5.04786 13.4167 4.66415 13.1793 4.42676L8.9299 0.177363C8.69554 -0.0576009 8.30758 -0.0606366 8.07018 0.177363L3.82079 4.42676ZM17 15.7844V13.3558C17 13.0207 16.7286 12.7487 16.3929 12.7487C16.0571 12.7487 15.7857 13.0207 15.7857 13.3558V15.7844H1.21429V13.3558C1.21429 13.0207 0.942893 12.7487 0.607143 12.7487C0.271393 12.7487 0 13.0207 0 13.3558V15.7844C0 16.4541 0.544607 16.9987 1.21429 16.9987H15.7857C16.4554 16.9987 17 16.4541 17 15.7844Z" fill="#9344FC"/>
</svg>
