<svg width="21" height="18" viewBox="0 0 21 18" fill="none" xmlns="http://www.w3.org/2000/svg">
<mask id="path-1-outside-1_1388_5237" maskUnits="userSpaceOnUse" x="0" y="0" width="21" height="18" fill="black">
<rect fill="white" width="21" height="18"/>
<path fill-rule="evenodd" clip-rule="evenodd" d="M19.8794 12.6368H2.01604C1.45581 12.6368 1 12.1812 1 11.621V2.0158C1 1.45568 1.45581 1 2.01604 1H19.8794C20.4395 1 20.8953 1.45568 20.8953 2.0158V11.621C20.8953 12.1812 20.4395 12.6368 19.8794 12.6368ZM2.01604 1.82054C1.90828 1.82054 1.82046 1.90812 1.82046 2.0158V11.621C1.82046 11.7287 1.90828 11.8163 2.01604 11.8163H19.8794C19.9871 11.8163 20.0748 11.7287 20.0748 11.621V2.0158C20.0748 1.90812 19.9872 1.82054 19.8794 1.82054H2.01604ZM8.8239 9.93622C8.68918 9.86253 8.60156 9.72517 8.60156 9.57169V4.06519C8.60156 3.91163 8.6874 3.77102 8.8239 3.70057C8.96033 3.63017 9.12453 3.6419 9.24966 3.7309L13.1215 6.48414C13.2298 6.56112 13.2939 6.68569 13.2939 6.81846C13.2939 6.95127 13.2298 7.07584 13.1215 7.15282C13.1215 7.15282 10.2175 9.21763 9.24966 9.90597C9.17893 9.95628 9.02647 10.0471 8.8239 9.93622ZM9.42218 4.86035V8.77653L12.1757 6.81846L9.42218 4.86035ZM12.6435 14.9656H20.4851C20.7115 14.9656 20.8953 15.1494 20.8953 15.3759C20.8953 15.6025 20.7115 15.7861 20.4851 15.7861H12.6436C12.4615 16.4837 11.826 17 11.0722 17C10.3185 17 9.6831 16.4837 9.50096 15.7861H1.41025C1.18373 15.7861 1 15.6025 1 15.3759C1 15.1494 1.18373 14.9656 1.41025 14.9656H9.50092C9.68306 14.2681 10.3184 13.7519 11.0721 13.7519C11.8259 13.7519 12.4614 14.2681 12.6435 14.9656ZM10.2687 15.3758C10.2687 15.8189 10.6292 16.1794 11.0721 16.1794C11.5152 16.1794 11.8757 15.819 11.8757 15.3758C11.8757 14.9328 11.5152 14.5724 11.0721 14.5724C10.6292 14.5724 10.2687 14.9328 10.2687 15.3758Z"/>
</mask>
<path fill-rule="evenodd" clip-rule="evenodd" d="M19.8794 12.6368H2.01604C1.45581 12.6368 1 12.1812 1 11.621V2.0158C1 1.45568 1.45581 1 2.01604 1H19.8794C20.4395 1 20.8953 1.45568 20.8953 2.0158V11.621C20.8953 12.1812 20.4395 12.6368 19.8794 12.6368ZM2.01604 1.82054C1.90828 1.82054 1.82046 1.90812 1.82046 2.0158V11.621C1.82046 11.7287 1.90828 11.8163 2.01604 11.8163H19.8794C19.9871 11.8163 20.0748 11.7287 20.0748 11.621V2.0158C20.0748 1.90812 19.9872 1.82054 19.8794 1.82054H2.01604ZM8.8239 9.93622C8.68918 9.86253 8.60156 9.72517 8.60156 9.57169V4.06519C8.60156 3.91163 8.6874 3.77102 8.8239 3.70057C8.96033 3.63017 9.12453 3.6419 9.24966 3.7309L13.1215 6.48414C13.2298 6.56112 13.2939 6.68569 13.2939 6.81846C13.2939 6.95127 13.2298 7.07584 13.1215 7.15282C13.1215 7.15282 10.2175 9.21763 9.24966 9.90597C9.17893 9.95628 9.02647 10.0471 8.8239 9.93622ZM9.42218 4.86035V8.77653L12.1757 6.81846L9.42218 4.86035ZM12.6435 14.9656H20.4851C20.7115 14.9656 20.8953 15.1494 20.8953 15.3759C20.8953 15.6025 20.7115 15.7861 20.4851 15.7861H12.6436C12.4615 16.4837 11.826 17 11.0722 17C10.3185 17 9.6831 16.4837 9.50096 15.7861H1.41025C1.18373 15.7861 1 15.6025 1 15.3759C1 15.1494 1.18373 14.9656 1.41025 14.9656H9.50092C9.68306 14.2681 10.3184 13.7519 11.0721 13.7519C11.8259 13.7519 12.4614 14.2681 12.6435 14.9656ZM10.2687 15.3758C10.2687 15.8189 10.6292 16.1794 11.0721 16.1794C11.5152 16.1794 11.8757 15.819 11.8757 15.3758C11.8757 14.9328 11.5152 14.5724 11.0721 14.5724C10.6292 14.5724 10.2687 14.9328 10.2687 15.3758Z" fill="black"/>
<path d="M8.8239 9.93622L8.87192 9.84851L8.87189 9.84849L8.8239 9.93622ZM8.8239 3.70057L8.86976 3.78944L8.86976 3.78944L8.8239 3.70057ZM9.24966 3.7309L9.1917 3.8124L9.19171 3.8124L9.24966 3.7309ZM13.1215 6.48414L13.0635 6.56563L13.0635 6.56565L13.1215 6.48414ZM13.1215 7.15282L13.0635 7.07131L13.0635 7.07132L13.1215 7.15282ZM9.24966 9.90597L9.1917 9.82448L9.1917 9.82448L9.24966 9.90597ZM9.42218 8.77653H9.32218V8.97034L9.48014 8.85802L9.42218 8.77653ZM9.42218 4.86035L9.48014 4.77886L9.32218 4.66653V4.86035H9.42218ZM12.1757 6.81846L12.2337 6.89995L12.3483 6.81846L12.2337 6.73696L12.1757 6.81846ZM12.6435 14.9656L12.5468 14.9909L12.5663 15.0656H12.6435V14.9656ZM12.6436 15.7861V15.6861H12.5663L12.5468 15.7609L12.6436 15.7861ZM9.50096 15.7861L9.59771 15.7609L9.5782 15.6861H9.50096V15.7861ZM9.50092 14.9656V15.0656H9.57816L9.59767 14.9909L9.50092 14.9656ZM2.01604 12.7368H19.8794V12.5368H2.01604V12.7368ZM0.9 11.621C0.9 12.2364 1.40061 12.7368 2.01604 12.7368V12.5368C1.511 12.5368 1.1 12.1259 1.1 11.621H0.9ZM0.9 2.0158V11.621H1.1V2.0158H0.9ZM2.01604 0.9C1.4006 0.9 0.9 1.40043 0.9 2.0158H1.1C1.1 1.51094 1.51101 1.1 2.01604 1.1V0.9ZM19.8794 0.9H2.01604V1.1H19.8794V0.9ZM20.9953 2.0158C20.9953 1.40044 20.4947 0.9 19.8794 0.9V1.1C20.3843 1.1 20.7953 1.51093 20.7953 2.0158H20.9953ZM20.9953 11.621V2.0158H20.7953V11.621H20.9953ZM19.8794 12.7368C20.4947 12.7368 20.9953 12.2364 20.9953 11.621H20.7953C20.7953 12.1259 20.3843 12.5368 19.8794 12.5368V12.7368ZM1.92046 2.0158C1.92046 1.96354 1.96332 1.92054 2.01604 1.92054V1.72054C1.85324 1.72054 1.72046 1.8527 1.72046 2.0158H1.92046ZM1.92046 11.621V2.0158H1.72046V11.621H1.92046ZM2.01604 11.7163C1.96335 11.7163 1.92046 11.6733 1.92046 11.621H1.72046C1.72046 11.7841 1.85322 11.9163 2.01604 11.9163V11.7163ZM19.8794 11.7163H2.01604V11.9163H19.8794V11.7163ZM19.9748 11.621C19.9748 11.6734 19.932 11.7163 19.8794 11.7163V11.9163C20.0423 11.9163 20.1748 11.784 20.1748 11.621H19.9748ZM19.9748 2.0158V11.621H20.1748V2.0158H19.9748ZM19.8794 1.92054C19.932 1.92054 19.9748 1.96343 19.9748 2.0158H20.1748C20.1748 1.85281 20.0423 1.72054 19.8794 1.72054V1.92054ZM2.01604 1.92054H19.8794V1.72054H2.01604V1.92054ZM8.50156 9.57169C8.50156 9.76449 8.61163 9.93409 8.77591 10.024L8.87189 9.84849C8.76674 9.79097 8.70156 9.68585 8.70156 9.57169H8.50156ZM8.50156 4.06519V9.57169H8.70156V4.06519H8.50156ZM8.77804 3.61171C8.60836 3.69928 8.50156 3.87413 8.50156 4.06519H8.70156C8.70156 3.94913 8.76643 3.84276 8.86976 3.78944L8.77804 3.61171ZM9.30762 3.64941C9.15202 3.53875 8.94777 3.52412 8.77804 3.61171L8.86976 3.78944C8.97289 3.73622 9.09703 3.74506 9.1917 3.8124L9.30762 3.64941ZM13.1794 6.40264L9.30762 3.64941L9.19171 3.8124L13.0635 6.56563L13.1794 6.40264ZM13.3939 6.81846C13.3939 6.65336 13.3142 6.4984 13.1794 6.40262L13.0635 6.56565C13.1454 6.62384 13.1939 6.71801 13.1939 6.81846H13.3939ZM13.1794 7.23434C13.3142 7.13856 13.3939 6.98359 13.3939 6.81846H13.1939C13.1939 6.91895 13.1454 7.01312 13.0635 7.07131L13.1794 7.23434ZM9.30762 9.98746C9.79152 9.6433 10.7595 8.95501 11.6064 8.35277C12.0299 8.05165 12.4232 7.77203 12.7105 7.5677C12.8542 7.46554 12.9714 7.38219 13.0527 7.32439C13.0934 7.29549 13.1251 7.27297 13.1466 7.25768C13.1573 7.25003 13.1655 7.24419 13.171 7.24027C13.1738 7.2383 13.1759 7.23682 13.1773 7.23582C13.178 7.23532 13.1785 7.23495 13.1789 7.2347C13.1791 7.23457 13.1792 7.23448 13.1793 7.23442C13.1793 7.23438 13.1794 7.23436 13.1794 7.23434C13.1794 7.23433 13.1794 7.23432 13.1215 7.15282C13.0635 7.07132 13.0635 7.07133 13.0635 7.07135C13.0635 7.07136 13.0634 7.07139 13.0634 7.07142C13.0633 7.07148 13.0632 7.07157 13.063 7.0717C13.0626 7.07195 13.0621 7.07233 13.0614 7.07282C13.06 7.07382 13.0579 7.0753 13.0552 7.07727C13.0496 7.0812 13.0414 7.08704 13.0307 7.09468C13.0092 7.10997 12.9775 7.13249 12.9368 7.16139C12.8555 7.21919 12.7383 7.30254 12.5946 7.40471C12.3073 7.60904 11.914 7.88865 11.4905 8.18977C10.6436 8.79202 9.67561 9.48031 9.1917 9.82448L9.30762 9.98746ZM8.77589 10.0239C8.89866 10.0911 9.01179 10.0993 9.10672 10.0794C9.19892 10.0601 9.26805 10.0156 9.30762 9.98746L9.1917 9.82448C9.16054 9.84665 9.11808 9.87271 9.06573 9.88367C9.01609 9.89406 8.95171 9.89218 8.87192 9.84851L8.77589 10.0239ZM9.52218 8.77653V4.86035H9.32218V8.77653H9.52218ZM12.1178 6.73696L9.36423 8.69503L9.48014 8.85802L12.2337 6.89995L12.1178 6.73696ZM9.36423 4.94185L12.1178 6.89995L12.2337 6.73696L9.48014 4.77886L9.36423 4.94185ZM20.4851 14.8656H12.6435V15.0656H20.4851V14.8656ZM20.9953 15.3759C20.9953 15.0941 20.7667 14.8656 20.4851 14.8656V15.0656C20.6563 15.0656 20.7953 15.2046 20.7953 15.3759H20.9953ZM20.4851 15.8861C20.7667 15.8861 20.9953 15.6578 20.9953 15.3759H20.7953C20.7953 15.5473 20.6563 15.6861 20.4851 15.6861V15.8861ZM12.6436 15.8861H20.4851V15.6861H12.6436V15.8861ZM11.0722 17.1C11.8727 17.1 12.547 16.5518 12.7403 15.8114L12.5468 15.7609C12.3759 16.4155 11.7792 16.9 11.0722 16.9V17.1ZM9.4042 15.8114C9.59753 16.5518 10.2718 17.1 11.0722 17.1V16.9C10.3652 16.9 9.76867 16.4156 9.59771 15.7609L9.4042 15.8114ZM1.41025 15.8861H9.50096V15.6861H1.41025V15.8861ZM0.9 15.3759C0.9 15.6577 1.12851 15.8861 1.41025 15.8861V15.6861C1.23894 15.6861 1.1 15.5473 1.1 15.3759H0.9ZM1.41025 14.8656C1.1285 14.8656 0.9 15.0941 0.9 15.3759H1.1C1.1 15.2046 1.23896 15.0656 1.41025 15.0656V14.8656ZM9.50092 14.8656H1.41025V15.0656H9.50092V14.8656ZM11.0721 13.6519C10.2717 13.6519 9.59749 14.2 9.40416 14.9404L9.59767 14.9909C9.76863 14.3362 10.3651 13.8519 11.0721 13.8519V13.6519ZM12.7403 14.9404C12.547 14.2 11.8726 13.6519 11.0721 13.6519V13.8519C11.7792 13.8519 12.3759 14.3362 12.5468 14.9909L12.7403 14.9404ZM11.0721 16.0794C10.6845 16.0794 10.3687 15.7637 10.3687 15.3758H10.1687C10.1687 15.8742 10.574 16.2794 11.0721 16.2794V16.0794ZM11.7757 15.3758C11.7757 15.7638 11.46 16.0794 11.0721 16.0794V16.2794C11.5704 16.2794 11.9757 15.8742 11.9757 15.3758H11.7757ZM11.0721 14.6724C11.46 14.6724 11.7757 14.9881 11.7757 15.3758H11.9757C11.9757 14.8776 11.5704 14.4724 11.0721 14.4724V14.6724ZM10.3687 15.3758C10.3687 14.9881 10.6844 14.6724 11.0721 14.6724V14.4724C10.574 14.4724 10.1687 14.8776 10.1687 15.3758H10.3687Z" fill="black" mask="url(#path-1-outside-1_1388_5237)"/>
</svg>
