<svg width="54" height="44" viewBox="0 0 54 44" fill="none" xmlns="http://www.w3.org/2000/svg">
<path d="M51.2426 31.5846H2.75775C1.23715 31.5846 0 30.348 0 28.8276V2.75709C0 1.23682 1.23715 0 2.75775 0H51.2426C52.7626 0 54 1.23682 54 2.75709V28.8276C54 30.348 52.7626 31.5846 51.2426 31.5846ZM2.75775 2.22711C2.46527 2.22711 2.22689 2.46482 2.22689 2.75709V28.8276C2.22689 29.1199 2.46527 29.3577 2.75775 29.3577H51.2426C51.535 29.3577 51.773 29.1199 51.773 28.8276V2.75709C51.773 2.46482 51.5351 2.22711 51.2426 2.22711H2.75775Z" fill="#C4C4C4"/>
<path d="M21.2353 24.2547C20.8697 24.0547 20.6318 23.6819 20.6318 23.2653V8.31953C20.6318 7.90274 20.8648 7.52111 21.2353 7.3299C21.6056 7.13881 22.0513 7.17066 22.3909 7.41222L32.8998 14.8851C33.1938 15.094 33.3679 15.4321 33.3679 15.7925C33.3679 16.1529 33.1938 16.4911 32.8998 16.7C32.8998 16.7 25.0177 22.3043 22.3909 24.1726C22.1989 24.3092 21.7851 24.5557 21.2353 24.2547ZM22.8592 10.4778V21.1071L30.3329 15.7925L22.8592 10.4778Z" fill="#C4C4C4"/>
<path d="M52.8866 37.9056H31.6029C31.1086 36.0123 29.3837 34.6111 27.3378 34.6111C25.2921 34.6111 23.5676 36.0123 23.0732 37.9056H1.1135C0.498673 37.9056 0 38.4042 0 39.0191C0 39.6341 0.498673 40.1326 1.1135 40.1326H23.0733C23.5677 42.0259 25.2923 43.4272 27.3379 43.4272C29.3838 43.4272 31.1087 42.0258 31.603 40.1326H52.8866C53.501 40.1326 54 39.6342 54 39.0191C54 38.4042 53.501 37.9056 52.8866 37.9056ZM27.3378 41.2C26.1357 41.2 25.1571 40.2216 25.1571 39.019C25.1571 37.8165 26.1357 36.8382 27.3378 36.8382C28.5404 36.8382 29.5188 37.8165 29.5188 39.019C29.5188 40.2217 28.5404 41.2 27.3378 41.2Z" fill="#C4C4C4"/>
</svg>
