<svg width="12" height="12" viewBox="0 0 12 12" fill="none" xmlns="http://www.w3.org/2000/svg">
<path d="M6 8.93619e-07C4.81331 8.93619e-07 3.65327 0.351895 2.66658 1.01118C1.67989 1.67047 0.910851 2.60754 0.456725 3.7039C0.00259975 4.80026 -0.11622 6.00666 0.115291 7.17054C0.346802 8.33443 0.918247 9.40352 1.75736 10.2426C2.59648 11.0818 3.66557 11.6532 4.82946 11.8847C5.99334 12.1162 7.19974 11.9974 8.2961 11.5433C9.39246 11.0891 10.3295 10.3201 10.9888 9.33342C11.6481 8.34673 12 7.18669 12 6C12.0004 5.21195 11.8455 4.43154 11.5442 3.70339C11.2428 2.97524 10.8008 2.31364 10.2436 1.7564C9.68636 1.19916 9.02476 0.757223 8.29661 0.455847C7.56846 0.154472 6.78805 -0.000429305 6 8.93619e-07ZM6.76909 8.31273L6.38727 8.7C5.97788 9.1094 5.42261 9.33939 4.84364 9.33939C4.26466 9.33939 3.7094 9.1094 3.3 8.7C2.8906 8.2906 2.66061 7.73534 2.66061 7.15636C2.66061 6.57739 2.8906 6.02212 3.3 5.61273L3.68727 5.23091C3.79162 5.14155 3.92584 5.09485 4.06312 5.10016C4.2004 5.10546 4.33062 5.16237 4.42776 5.25951C4.52491 5.35665 4.58181 5.48687 4.58712 5.62415C4.59242 5.76143 4.54572 5.89565 4.45636 6L4.06909 6.38727C3.86439 6.59197 3.74939 6.8696 3.74939 7.15909C3.74939 7.44858 3.86439 7.72621 4.06909 7.93091C4.27379 8.13561 4.55142 8.2506 4.84091 8.2506C5.1304 8.2506 5.40803 8.13561 5.61273 7.93091L6 7.54364C6.10435 7.45428 6.23857 7.40758 6.37585 7.41288C6.51313 7.41819 6.64335 7.47509 6.74049 7.57224C6.83763 7.66938 6.89454 7.7996 6.89984 7.93688C6.90515 8.07416 6.85845 8.20838 6.76909 8.31273ZM6.96546 5.80909L5.80909 6.96545C5.70638 7.06816 5.56707 7.12587 5.42182 7.12587C5.27656 7.12587 5.13726 7.06816 5.03455 6.96545C4.93183 6.86274 4.87413 6.72344 4.87413 6.57818C4.87413 6.43293 4.93183 6.29362 5.03455 6.19091L6.19091 5.03454C6.29362 4.93183 6.43293 4.87413 6.57818 4.87413C6.72344 4.87413 6.86274 4.93183 6.96546 5.03454C7.06817 5.13726 7.12587 5.27656 7.12587 5.42182C7.12587 5.56707 7.06817 5.70638 6.96546 5.80909ZM8.7 6.38727L8.31273 6.76909C8.20838 6.85845 8.07416 6.90514 7.93688 6.89984C7.7996 6.89454 7.66938 6.83763 7.57224 6.74049C7.4751 6.64335 7.41819 6.51312 7.41288 6.37585C7.40758 6.23857 7.45428 6.10435 7.54364 6L7.93091 5.61273C8.13561 5.40803 8.25061 5.1304 8.25061 4.84091C8.25061 4.55142 8.13561 4.27379 7.93091 4.06909C7.72621 3.86439 7.44858 3.74939 7.15909 3.74939C6.8696 3.74939 6.59197 3.86439 6.38727 4.06909L6 4.45636C5.89565 4.54572 5.76143 4.59242 5.62415 4.58711C5.48688 4.58181 5.35665 4.5249 5.25951 4.42776C5.16237 4.33062 5.10546 4.2004 5.10016 4.06312C5.09486 3.92584 5.14155 3.79162 5.23091 3.68727L5.61273 3.3C6.02213 2.8906 6.57739 2.6606 7.15636 2.6606C7.73534 2.6606 8.2906 2.8906 8.7 3.3C9.1094 3.7094 9.3394 4.26466 9.3394 4.84364C9.3394 5.42261 9.1094 5.97787 8.7 6.38727Z" fill="#9344FC"/>
</svg>
