<svg width="12" height="12" viewBox="0 0 12 12" fill="none" xmlns="http://www.w3.org/2000/svg">
<path fill-rule="evenodd" clip-rule="evenodd" d="M11.8495 0.150688C12.0504 0.351605 12.0504 0.676638 11.8495 0.877555L8.10315 4.62405C8.10231 4.62491 8.10146 4.62576 8.10061 4.62661L3.42465 9.30325L3.42039 9.30665L0.878561 11.8491C0.778445 11.9499 0.646786 12 0.515127 12C0.383468 12 0.251809 11.9499 0.151693 11.8491C-0.049224 11.6482 -0.049224 11.3232 0.151693 11.1223L1.97503 9.29866C1.50982 9.27665 1.11569 9.21592 0.666672 8.83216C0.0618633 8.31499 0.00360417 7.28848 0 6.383L0.000148116 6.08652L0.00083384 5.91989L0.000148116 5.75395L6.85724e-07 5.45745C0.00361102 4.55186 0.0619319 3.52486 0.667358 3.00831C1.17479 2.57424 1.60954 2.55779 2.15881 2.53721C2.31035 2.53104 2.4811 2.52487 2.68133 2.5091C2.85345 2.48716 3.35334 2.07572 3.68386 1.80417C4.64799 1.00942 5.96938 -0.0781382 7.20505 0.654215C7.22768 0.666558 7.24894 0.681644 7.26882 0.698101C7.86095 1.18012 8.09531 1.91833 8.19359 3.07936L11.1226 0.150688C11.3235 -0.0502293 11.6485 -0.0502293 11.8495 0.150688ZM7.74362 6.80015C8.02751 6.80427 8.25517 7.03742 8.25105 7.3213C8.225 9.34762 8.06591 10.4948 7.26841 11.1428C7.24784 11.1586 7.22727 11.1737 7.20533 11.186C6.91458 11.3582 6.61972 11.4281 6.33103 11.4281C5.63845 11.4281 4.98084 11.027 4.49329 10.6738C4.26288 10.5079 4.21145 10.1863 4.3774 9.95654C4.54472 9.72614 4.86632 9.67334 5.09604 9.84134C5.99639 10.4921 6.40234 10.4489 6.64852 10.32C7.04761 9.96409 7.19915 9.16316 7.22247 7.30759C7.22658 7.0237 7.43436 6.8029 7.74362 6.80015ZM6.32938 1.4476C5.73554 1.4476 4.97233 2.07572 4.33735 2.59824C3.72706 3.10019 3.24568 3.49654 2.76224 3.53494C2.54624 3.5514 2.3611 3.55894 2.19789 3.56511C1.69114 3.58363 1.56291 3.59597 1.33525 3.79072C1.02462 4.05609 1.02736 5.11759 1.02873 5.7512L1.02942 5.91989L1.02873 6.08926C1.02736 6.72287 1.02462 7.78437 1.33525 8.04975C1.56771 8.24861 1.69937 8.26095 2.21847 8.27878C2.3755 8.28427 2.5531 8.29044 2.75813 8.30484C2.8171 8.30895 2.87745 8.31855 2.93916 8.33364L7.21671 4.05609C7.16665 2.53036 7.01236 1.846 6.64893 1.52097C6.55018 1.47023 6.44321 1.4476 6.32938 1.4476Z" fill="white"/>
</svg>
