<svg width="13" height="11" viewBox="0 0 13 11" fill="none" xmlns="http://www.w3.org/2000/svg">
<path d="M13 1.30243C12.5219 1.52298 12.0084 1.672 11.4685 1.73935C12.0192 1.39601 12.4418 0.851198 12.641 0.202666C12.1257 0.520971 11.5549 0.752249 10.9475 0.876233C10.4608 0.33738 9.76803 0 9.00084 0C7.52827 0 6.33396 1.24342 6.33396 2.77772C6.33396 2.99469 6.35801 3.2057 6.40267 3.40956C4.18524 3.29333 2.22087 2.1876 0.905178 0.507858C0.676164 0.919151 0.544481 1.39601 0.544481 1.90387C0.544481 2.86713 1.01568 3.71773 1.73078 4.21546C1.29336 4.20055 0.882277 4.07597 0.522724 3.86794V3.90371C0.522724 5.24905 1.44164 6.37146 2.66229 6.62658C2.43786 6.68977 2.20255 6.72315 1.95979 6.72315C1.78803 6.72315 1.62028 6.70646 1.45768 6.67427C1.79719 7.77701 2.78195 8.58052 3.94935 8.60198C3.03616 9.34708 1.88593 9.79116 0.636659 9.79116C0.421386 9.79116 0.208975 9.77804 0 9.75241C1.18057 10.541 2.58214 11 4.08791 11C8.99454 11 11.6769 6.76905 11.6769 3.0996C11.6769 2.98039 11.674 2.85998 11.6689 2.74076C12.1899 2.34854 12.6422 1.86036 12.9989 1.30422L13 1.30243Z" fill="#9344FC"/>
</svg>
